<svg width="217" height="120" viewBox="0 0 217 120" fill="none" xmlns="http://www.w3.org/2000/svg">
<path d="M19.4999 53.5C18.3741 54.5007 11.737 62 9.23701 62C4.737 62.5 1.00855 71.875 2.23699 78C3.45819 84.0889 2.23687 80 10.5 89.5C29.737 102.5 16.737 92.3603 29.737 102.5C35.5064 107 35.2662 108.263 42.4999 108C53.2012 113.881 71.0285 120.559 83.5225 116.867C94.6894 113.568 105.264 105.286 116.946 104.282C127.018 103.416 138.471 106.07 148.269 108.43C155.858 110.258 163.732 110.454 171.465 110.454C175.641 110.454 215.371 111.395 208.421 98.4007C206.097 94.0556 204.602 86.4405 207.521 73.9645C209.663 64.809 213.305 47.8762 213.305 38.8191C213.305 23.6583 220.017 17.5918 208.421 14.8353C207.183 8.17361 195.676 17.1594 192.743 11.1421L192.727 11.1092C189.667 4.83036 187.736 0.868431 181.328 2.28848C173.077 4.11694 163.98 8.74001 156.214 12.3057C146.791 16.6327 138.112 21.5137 127.95 23.4359C113.484 26.1726 100.952 19.7884 87.5406 14.8353C79.9837 12.0442 71.9063 11.132 64.619 15.7459C62.3187 17.2023 52.8066 20.6888 52.4999 23C48.4999 30.5 50.4999 24.5 46.9999 36C44.1286 45.4343 37.9999 40.944 29.4999 46.5C22.5888 51.0174 23.9999 49.5 19.4999 53.5Z" fill="#FAA21D"/>
<path d="M9.23701 62C6.73701 57.5 5.00502 64.3445 9.23701 62ZM9.23701 62C11.737 62 18.3741 54.5007 19.4999 53.5C23.9999 49.5 22.5888 51.0174 29.4999 46.5C37.9999 40.944 44.1286 45.4343 46.9999 36C50.4999 24.5 48.4999 30.5 52.4999 23C52.8066 20.6888 62.3187 17.2023 64.619 15.7459C71.9063 11.132 79.9836 12.0442 87.5406 14.8353C100.952 19.7884 113.484 26.1726 127.95 23.4359C138.112 21.5137 146.791 16.6327 156.214 12.3057C163.98 8.74001 173.077 4.11694 181.328 2.28848C187.747 0.865953 189.674 4.8442 192.743 11.1421C195.676 17.1594 207.183 8.17361 208.421 14.8353C220.017 17.5918 213.305 23.6583 213.305 38.8191C213.305 47.8762 209.663 64.809 207.521 73.9645C204.602 86.4405 206.097 94.0556 208.421 98.4007C215.371 111.395 175.641 110.454 171.465 110.454C163.732 110.454 155.858 110.258 148.269 108.43C138.471 106.07 127.018 103.416 116.946 104.282C105.264 105.286 94.6894 113.568 83.5225 116.867C71.0285 120.559 53.2012 113.881 42.4999 108C35.2662 108.263 35.5064 107 29.737 102.5C16.737 92.3603 29.737 102.5 10.5 89.5C2.23687 80 3.45819 84.0889 2.23699 78C1.00855 71.875 4.737 62.5 9.23701 62Z" stroke="#FAA21D" stroke-width="3" stroke-linecap="round"/>
<path d="M48.3969 76.24C46.9836 76.24 45.6769 75.96 44.4769 75.4C43.3036 74.8133 42.2903 74.0267 41.4369 73.04C40.5836 72.0267 39.9169 70.88 39.4369 69.6C38.9836 68.32 38.7569 66.9867 38.7569 65.6C38.7569 64.1333 38.9836 62.7467 39.4369 61.44C39.9169 60.1333 40.5836 58.9867 41.4369 58C42.3169 56.9867 43.3436 56.2 44.5169 55.64C45.6903 55.0533 46.9969 54.76 48.4369 54.76C50.1703 54.76 51.6769 55.1867 52.9569 56.04C54.2636 56.8933 55.3569 57.9733 56.2369 59.28V55.12H59.3569V75.76C59.3569 77.7333 58.8769 79.4 57.9169 80.76C56.9836 82.12 55.7036 83.1467 54.0769 83.84C52.4769 84.56 50.6903 84.92 48.7169 84.92C46.3703 84.92 44.4503 84.5067 42.9569 83.68C41.4636 82.8533 40.2236 81.7333 39.2369 80.32L41.2769 78.52C42.1036 79.7467 43.1703 80.6667 44.4769 81.28C45.8103 81.8933 47.2236 82.2 48.7169 82.2C49.9969 82.2 51.1703 81.96 52.2369 81.48C53.3303 81.0267 54.1969 80.32 54.8369 79.36C55.5036 78.4 55.8369 77.2 55.8369 75.76V72.08C55.0636 73.36 53.9969 74.3733 52.6369 75.12C51.3036 75.8667 49.8903 76.24 48.3969 76.24ZM49.4769 73.36C50.2236 73.36 50.9436 73.2267 51.6369 72.96C52.3303 72.6933 52.9703 72.3467 53.5569 71.92C54.1436 71.4667 54.6369 70.96 55.0369 70.4C55.4369 69.84 55.7036 69.2667 55.8369 68.68V62.68C55.4636 61.72 54.9303 60.88 54.2369 60.16C53.5436 59.4133 52.7569 58.84 51.8769 58.44C50.9969 58.0133 50.0903 57.8 49.1569 57.8C48.0903 57.8 47.1303 58.0267 46.2769 58.48C45.4503 58.9333 44.7436 59.5467 44.1569 60.32C43.5703 61.0667 43.1169 61.9067 42.7969 62.84C42.4769 63.7733 42.3169 64.72 42.3169 65.68C42.3169 66.72 42.5036 67.7067 42.8769 68.64C43.2503 69.5467 43.7569 70.36 44.3969 71.08C45.0369 71.8 45.7969 72.36 46.6769 72.76C47.5569 73.16 48.4903 73.36 49.4769 73.36ZM74.2779 76.4C72.7045 76.4 71.2645 76.12 69.9579 75.56C68.6779 74.9733 67.5579 74.1867 66.5979 73.2C65.6645 72.1867 64.9312 71.0267 64.3979 69.72C63.8912 68.4133 63.6379 67.0267 63.6379 65.56C63.6379 63.5867 64.0912 61.7867 64.9979 60.16C65.9045 58.5333 67.1579 57.2267 68.7579 56.24C70.3845 55.2533 72.2379 54.76 74.3179 54.76C76.4245 54.76 78.2512 55.2667 79.7979 56.28C81.3712 57.2667 82.5845 58.5733 83.4379 60.2C84.3179 61.8 84.7579 63.5333 84.7579 65.4C84.7579 65.6667 84.7445 65.9333 84.7179 66.2C84.7179 66.44 84.7045 66.6267 84.6779 66.76H67.3579C67.4645 68.12 67.8379 69.3333 68.4779 70.4C69.1445 71.44 69.9979 72.2667 71.0379 72.88C72.0779 73.4667 73.1979 73.76 74.3979 73.76C75.6779 73.76 76.8779 73.44 77.9979 72.8C79.1445 72.16 79.9312 71.32 80.3579 70.28L83.3979 71.12C82.9445 72.1333 82.2645 73.04 81.3579 73.84C80.4779 74.64 79.4245 75.2667 78.1979 75.72C76.9979 76.1733 75.6912 76.4 74.2779 76.4ZM67.2379 64.32H81.4779C81.3712 62.96 80.9845 61.76 80.3179 60.72C79.6512 59.68 78.7979 58.8667 77.7579 58.28C76.7179 57.6933 75.5712 57.4 74.3179 57.4C73.0912 57.4 71.9579 57.6933 70.9179 58.28C69.8779 58.8667 69.0245 59.68 68.3579 60.72C67.7179 61.76 67.3445 62.96 67.2379 64.32ZM99.2754 74.96C98.982 75.0933 98.582 75.2667 98.0754 75.48C97.5687 75.6933 96.982 75.88 96.3154 76.04C95.6487 76.2 94.942 76.28 94.1954 76.28C93.342 76.28 92.5554 76.1333 91.8354 75.84C91.1154 75.52 90.542 75.04 90.1154 74.4C89.6887 73.7333 89.4754 72.9067 89.4754 71.92V57.88H86.6354V55.12H89.4754V48.16H92.9954V55.12H97.6754V57.88H92.9954V70.84C93.0487 71.5867 93.302 72.1467 93.7554 72.52C94.2087 72.8667 94.742 73.04 95.3554 73.04C96.0487 73.04 96.6887 72.92 97.2754 72.68C97.862 72.44 98.2487 72.2667 98.4354 72.16L99.2754 74.96ZM107.858 76.52C106.871 76.52 105.965 76.4267 105.138 76.24C104.311 76.0533 103.631 75.7067 103.098 75.2C102.698 74.8267 102.431 74.4133 102.298 73.96C102.165 73.48 102.098 72.96 102.098 72.4C102.098 71.4933 102.178 70.5867 102.338 69.68C102.578 68.1067 102.791 66.4133 102.978 64.6C103.165 62.7867 103.258 61.1067 103.258 59.56C103.258 59.08 103.231 58.5333 103.178 57.92C103.151 57.3067 103.098 56.7333 103.018 56.2C102.831 56.28 102.645 56.36 102.458 56.44C102.298 56.4933 102.151 56.52 102.018 56.52C101.778 56.52 101.618 56.4 101.538 56.16C101.458 55.92 101.418 55.6533 101.418 55.36C101.418 54.5867 101.591 53.9333 101.938 53.4C102.311 52.84 102.911 52.3467 103.738 51.92C104.618 51.44 105.765 51.0267 107.178 50.68C108.618 50.3067 110.071 50.12 111.538 50.12C114.871 50.12 117.485 51.1067 119.378 53.08C121.298 55.0267 122.258 57.8 122.258 61.4C122.258 63.4533 121.938 65.4 121.298 67.24C120.685 69.0533 119.765 70.6667 118.538 72.08C117.311 73.4667 115.805 74.56 114.018 75.36C112.231 76.1333 110.178 76.52 107.858 76.52ZM109.138 72.04C110.338 72.04 111.538 71.8533 112.738 71.48C113.938 71.1067 115.018 70.5467 115.978 69.8C116.965 69.0533 117.751 68.1067 118.338 66.96C118.925 65.7867 119.218 64.3867 119.218 62.76C119.218 60.92 118.858 59.4 118.138 58.2C117.418 57 116.458 56.1067 115.258 55.52C114.058 54.9333 112.725 54.64 111.258 54.64C110.458 54.64 109.658 54.7067 108.858 54.84C108.085 54.9733 107.471 55.1067 107.018 55.24C106.991 56.4667 106.911 57.6667 106.778 58.84C106.671 59.9867 106.538 61.1067 106.378 62.2C106.218 63.3467 106.085 64.4667 105.978 65.56C105.898 66.6533 105.858 67.7333 105.858 68.8C105.858 70.1333 106.125 71.0133 106.658 71.44C107.218 71.84 108.045 72.04 109.138 72.04ZM134.839 76.52C132.092 76.52 129.892 75.72 128.239 74.12C126.612 72.4933 125.799 70.1067 125.799 66.96C125.799 65.5467 125.985 64.08 126.359 62.56C126.759 61.04 127.412 59.5333 128.319 58.04C127.812 58.4933 127.332 58.72 126.879 58.72C126.105 58.72 125.719 58.1067 125.719 56.88C125.719 56 125.905 55.2933 126.279 54.76C126.652 54.2267 127.012 53.8 127.359 53.48C127.945 52.9733 128.692 52.4667 129.599 51.96C130.505 51.4267 131.572 50.9867 132.799 50.64C134.025 50.2933 135.399 50.12 136.919 50.12C140.492 50.12 143.172 51.1333 144.959 53.16C146.772 55.16 147.679 57.9467 147.679 61.52C147.679 63.6267 147.372 65.5867 146.759 67.4C146.145 69.2133 145.265 70.8 144.119 72.16C142.999 73.52 141.652 74.5867 140.079 75.36C138.505 76.1333 136.759 76.52 134.839 76.52ZM136.239 72.04C137.572 72.04 138.879 71.7333 140.159 71.12C141.465 70.5067 142.532 69.5333 143.359 68.2C144.212 66.84 144.639 65.08 144.639 62.92C144.639 60.8933 144.252 59.28 143.479 58.08C142.705 56.8533 141.719 55.9733 140.519 55.44C139.345 54.88 138.105 54.6 136.799 54.6C135.812 54.6 134.919 54.7333 134.119 55C133.345 55.24 132.652 55.5067 132.039 55.8C131.345 56.8667 130.692 58.1733 130.079 59.72C129.465 61.24 129.159 62.8533 129.159 64.56C129.159 66.2667 129.492 67.68 130.159 68.8C130.825 69.8933 131.692 70.7067 132.759 71.24C133.852 71.7733 135.012 72.04 136.239 72.04ZM153.228 76.4C152.642 76.4 152.135 76.2533 151.708 75.96C151.308 75.64 151.108 74.9067 151.108 73.76C151.108 73.1733 151.162 72.4667 151.268 71.64C151.402 70.7867 151.535 69.9067 151.668 69C151.882 67.72 152.095 66.32 152.308 64.8C152.522 63.2533 152.628 61.72 152.628 60.2C152.628 58.6 152.575 57.3733 152.468 56.52C152.362 55.6667 152.242 54.9733 152.108 54.44C152.055 54.1467 152.002 53.88 151.948 53.64C151.922 53.4 151.908 53.1333 151.908 52.84C151.908 51.9867 152.175 51.3467 152.708 50.92C153.268 50.4667 153.882 50.24 154.548 50.24C155.215 50.24 155.775 50.4133 156.228 50.76C156.682 51.08 157.082 51.4267 157.428 51.8C159.722 54.3867 161.788 57.1067 163.628 59.96C165.468 62.7867 167.002 65.6933 168.228 68.68C168.362 68.8933 168.482 69 168.588 69C168.748 69 168.855 68.8933 168.908 68.68C169.388 65.56 169.628 62.7333 169.628 60.2C169.628 58.68 169.562 57.48 169.428 56.6C169.322 55.6933 169.175 55 168.988 54.52C168.828 54.0133 168.668 53.6133 168.508 53.32C168.428 53.1333 168.362 52.9733 168.308 52.84C168.255 52.68 168.228 52.5333 168.228 52.4C168.228 52.08 168.388 51.76 168.708 51.44C169.055 51.0933 169.468 50.8133 169.948 50.6C170.428 50.3867 170.895 50.28 171.348 50.28C171.988 50.28 172.455 50.4933 172.748 50.92C173.042 51.3467 173.228 51.88 173.308 52.52C173.415 53.1333 173.468 53.76 173.468 54.4C173.468 55.12 173.402 56.0533 173.268 57.2C173.135 58.3467 172.975 59.5867 172.788 60.92C172.628 62.2267 172.482 63.52 172.348 64.8C172.242 66.08 172.188 67.2133 172.188 68.2C172.188 68.76 172.202 69.3067 172.228 69.84C172.282 70.3733 172.335 70.8933 172.388 71.4C172.468 72.0667 172.508 72.6533 172.508 73.16C172.508 74.1467 172.255 74.9333 171.748 75.52C171.268 76.08 170.602 76.36 169.748 76.36C169.162 76.36 168.575 76.1867 167.988 75.84C167.428 75.4933 167.002 74.9333 166.708 74.16C165.562 71.2267 164.148 68.3733 162.468 65.6C160.815 62.8 159.082 60.3867 157.268 58.36C156.975 58.0933 156.735 57.96 156.548 57.96C156.282 57.96 156.108 58.2533 156.028 58.84C155.895 59.8533 155.762 60.96 155.628 62.16C155.495 63.36 155.388 64.5333 155.308 65.68C155.228 66.8 155.188 67.76 155.188 68.56C155.188 69.4667 155.268 70.2533 155.428 70.92C155.588 71.56 155.828 72.1867 156.148 72.8C156.442 73.3333 156.588 73.8133 156.588 74.24C156.588 74.7467 156.295 75.24 155.708 75.72C155.122 76.1733 154.295 76.4 153.228 76.4ZM184.966 76.52C182.432 76.52 180.552 76.12 179.326 75.32C178.126 74.4933 177.526 72.96 177.526 70.72C177.526 70.2667 177.552 69.72 177.606 69.08C177.686 68.44 177.792 67.6667 177.926 66.76C178.139 65.4533 178.299 64.2933 178.406 63.28C178.512 62.24 178.566 61.1067 178.566 59.88C178.566 59.08 178.539 58.3067 178.486 57.56C178.459 56.8133 178.392 56.1067 178.286 55.44C177.886 55.52 177.619 55.56 177.486 55.56C177.272 55.56 177.126 55.52 177.046 55.44C176.966 55.3333 176.926 55.1467 176.926 54.88C176.926 54.32 176.992 53.7733 177.126 53.24C177.259 52.68 177.446 52.2267 177.686 51.88C178.139 51.24 178.832 50.8667 179.766 50.76C180.486 50.68 181.366 50.6 182.406 50.52C183.472 50.44 184.552 50.3867 185.646 50.36C186.766 50.3067 187.766 50.28 188.646 50.28C191.099 50.28 192.552 50.3333 193.006 50.44C193.699 50.5467 194.046 50.92 194.046 51.56C194.046 52.36 193.766 53.0933 193.206 53.76C192.912 54.16 192.619 54.4533 192.326 54.64C192.032 54.8 191.619 54.8667 191.086 54.84C189.912 54.76 188.886 54.7067 188.006 54.68C187.126 54.6533 186.512 54.64 186.166 54.64C185.552 54.64 184.912 54.6533 184.246 54.68C183.606 54.7067 182.952 54.7467 182.286 54.8C182.286 55.7333 182.246 56.7333 182.166 57.8C182.086 58.8667 181.979 59.9867 181.846 61.16C183.072 61.08 184.459 61.0267 186.006 61C187.552 60.9467 188.926 60.92 190.126 60.92C190.659 60.92 191.019 60.9733 191.206 61.08C191.419 61.1867 191.526 61.4667 191.526 61.92C191.526 62.3467 191.406 62.8267 191.166 63.36C190.952 63.8667 190.659 64.3067 190.286 64.68C190.126 64.84 189.952 64.9733 189.766 65.08C189.579 65.16 189.326 65.1867 189.006 65.16C187.859 65.1067 186.552 65.0667 185.086 65.04C183.646 65.0133 182.379 65.0133 181.286 65.04C181.179 65.6533 181.099 66.2133 181.046 66.72C180.992 67.2267 180.966 67.68 180.966 68.08C180.966 69.5467 181.339 70.5733 182.086 71.16C182.832 71.7467 184.059 72.04 185.766 72.04C186.806 72.04 187.806 71.9467 188.766 71.76C189.752 71.5733 190.752 71.2267 191.766 70.72C192.139 70.5067 192.419 70.4 192.606 70.4C192.899 70.4 193.179 70.6133 193.446 71.04C193.739 71.44 193.886 71.88 193.886 72.36C193.886 72.9467 193.659 73.5067 193.206 74.04C192.779 74.5467 192.206 74.9867 191.486 75.36C190.659 75.7333 189.672 76.0133 188.526 76.2C187.379 76.4133 186.192 76.52 184.966 76.52Z" fill="#2F2C2A"/>
</svg>
