<svg width="217" height="120" viewBox="0 0 217 120" fill="none" xmlns="http://www.w3.org/2000/svg">
<path d="M19.4999 53.5C18.3741 54.5007 11.737 62 9.23701 62C4.737 62.5 1.00855 71.875 2.23699 78C3.45819 84.0889 2.23687 80 10.5 89.5C29.737 102.5 16.737 92.3603 29.737 102.5C35.5064 107 35.2662 108.263 42.4999 108C53.2012 113.881 71.0285 120.559 83.5225 116.867C94.6894 113.568 105.264 105.286 116.946 104.282C127.018 103.416 138.471 106.07 148.269 108.43C155.858 110.258 163.732 110.454 171.465 110.454C175.641 110.454 215.371 111.395 208.421 98.4007C206.097 94.0556 204.602 86.4405 207.521 73.9645C209.663 64.809 213.305 47.8762 213.305 38.8191C213.305 23.6583 220.017 17.5918 208.421 14.8353C207.183 8.17361 195.676 17.1594 192.743 11.1421L192.727 11.1092C189.667 4.83036 187.736 0.868431 181.328 2.28848C173.077 4.11694 163.98 8.74001 156.214 12.3057C146.791 16.6327 138.112 21.5137 127.95 23.4359C113.484 26.1726 100.952 19.7884 87.5406 14.8353C79.9837 12.0442 71.9063 11.132 64.619 15.7459C62.3187 17.2023 52.8066 20.6888 52.4999 23C48.4999 30.5 50.4999 24.5 46.9999 36C44.1286 45.4343 37.9999 40.944 29.4999 46.5C22.5888 51.0174 23.9999 49.5 19.4999 53.5Z" fill="#FAA21D"/>
<path d="M9.23701 62C6.73701 57.5 5.00502 64.3445 9.23701 62ZM9.23701 62C11.737 62 18.3741 54.5007 19.4999 53.5C23.9999 49.5 22.5888 51.0174 29.4999 46.5C37.9999 40.944 44.1286 45.4343 46.9999 36C50.4999 24.5 48.4999 30.5 52.4999 23C52.8066 20.6888 62.3187 17.2023 64.619 15.7459C71.9063 11.132 79.9836 12.0442 87.5406 14.8353C100.952 19.7884 113.484 26.1726 127.95 23.4359C138.112 21.5137 146.791 16.6327 156.214 12.3057C163.98 8.74001 173.077 4.11694 181.328 2.28848C187.747 0.865953 189.674 4.8442 192.743 11.1421C195.676 17.1594 207.183 8.17361 208.421 14.8353C220.017 17.5918 213.305 23.6583 213.305 38.8191C213.305 47.8762 209.663 64.809 207.521 73.9645C204.602 86.4405 206.097 94.0556 208.421 98.4007C215.371 111.395 175.641 110.454 171.465 110.454C163.732 110.454 155.858 110.258 148.269 108.43C138.471 106.07 127.018 103.416 116.946 104.282C105.264 105.286 94.6894 113.568 83.5225 116.867C71.0285 120.559 53.2012 113.881 42.4999 108C35.2662 108.263 35.5064 107 29.737 102.5C16.737 92.3603 29.737 102.5 10.5 89.5C2.23687 80 3.45819 84.0889 2.23699 78C1.00855 71.875 4.737 62.5 9.23701 62Z" stroke="#FAA21D" stroke-width="3" stroke-linecap="round"/>
<path d="M48.5969 76.28C47.1836 76.28 45.8769 75.9867 44.6769 75.4C43.4769 74.8133 42.4369 74.0267 41.5569 73.04C40.7036 72.0267 40.0369 70.88 39.5569 69.6C39.0769 68.32 38.8369 67 38.8369 65.64C38.8369 64.1733 39.0636 62.8 39.5169 61.52C39.9969 60.2133 40.6636 59.0533 41.5169 58.04C42.3969 57.0267 43.4236 56.24 44.5969 55.68C45.7703 55.0933 47.0769 54.8 48.5169 54.8C50.3036 54.8 51.8503 55.2533 53.1569 56.16C54.4903 57.0667 55.6103 58.1867 56.5169 59.52V55.16H58.9569V76.08C58.9569 78 58.4903 79.6133 57.5569 80.92C56.6503 82.2533 55.4103 83.2533 53.8369 83.92C52.2903 84.5867 50.5969 84.92 48.7569 84.92C46.3836 84.92 44.4636 84.4933 42.9969 83.64C41.5303 82.7867 40.3303 81.64 39.3969 80.2L41.0769 78.88C41.9036 80.1867 42.9969 81.16 44.3569 81.8C45.7436 82.44 47.2103 82.76 48.7569 82.76C50.1169 82.76 51.3569 82.5067 52.4769 82C53.6236 81.52 54.5303 80.7867 55.1969 79.8C55.8903 78.8133 56.2369 77.5733 56.2369 76.08V71.96C55.4369 73.2667 54.3436 74.32 52.9569 75.12C51.5703 75.8933 50.1169 76.28 48.5969 76.28ZM49.3569 74C50.1836 74 50.9703 73.8533 51.7169 73.56C52.4903 73.2667 53.1969 72.88 53.8369 72.4C54.4769 71.8933 55.0103 71.3333 55.4369 70.72C55.8636 70.1067 56.1303 69.48 56.2369 68.84V62.4C55.8369 61.3867 55.2636 60.4933 54.5169 59.72C53.7703 58.92 52.9169 58.3067 51.9569 57.88C51.0236 57.4267 50.0503 57.2 49.0369 57.2C47.8636 57.2 46.8103 57.4533 45.8769 57.96C44.9703 58.44 44.1969 59.0933 43.5569 59.92C42.9436 60.72 42.4636 61.6267 42.1169 62.64C41.7703 63.6533 41.5969 64.6667 41.5969 65.68C41.5969 66.8 41.7969 67.8667 42.1969 68.88C42.5969 69.8667 43.1436 70.76 43.8369 71.56C44.5569 72.3333 45.3836 72.9333 46.3169 73.36C47.2769 73.7867 48.2903 74 49.3569 74ZM73.9635 76.4C72.4702 76.4 71.0835 76.12 69.8035 75.56C68.5235 74.9733 67.4168 74.1867 66.4835 73.2C65.5502 72.1867 64.8168 71.0267 64.2835 69.72C63.7768 68.4133 63.5235 67.0133 63.5235 65.52C63.5235 63.5733 63.9635 61.7867 64.8435 60.16C65.7502 58.5333 66.9902 57.24 68.5635 56.28C70.1368 55.2933 71.9235 54.8 73.9235 54.8C75.9768 54.8 77.7635 55.2933 79.2835 56.28C80.8302 57.2667 82.0435 58.5733 82.9235 60.2C83.8035 61.8 84.2435 63.56 84.2435 65.48C84.2435 65.6933 84.2435 65.9067 84.2435 66.12C84.2435 66.3067 84.2302 66.4533 84.2035 66.56H66.3635C66.4968 68.0533 66.9102 69.3867 67.6035 70.56C68.3235 71.7067 69.2435 72.6267 70.3635 73.32C71.5102 73.9867 72.7502 74.32 74.0835 74.32C75.4435 74.32 76.7235 73.9733 77.9235 73.28C79.1502 72.5867 80.0035 71.68 80.4835 70.56L82.8435 71.2C82.4168 72.1867 81.7635 73.08 80.8835 73.88C80.0035 74.68 78.9635 75.3067 77.7635 75.76C76.5902 76.1867 75.3235 76.4 73.9635 76.4ZM66.2835 64.6H81.6835C81.5768 63.08 81.1635 61.7467 80.4435 60.6C79.7502 59.4533 78.8302 58.56 77.6835 57.92C76.5635 57.2533 75.3235 56.92 73.9635 56.92C72.6035 56.92 71.3635 57.2533 70.2435 57.92C69.1235 58.56 68.2035 59.4667 67.4835 60.64C66.7902 61.7867 66.3902 63.1067 66.2835 64.6ZM98.2448 75C98.0314 75.08 97.6981 75.2267 97.2448 75.44C96.7914 75.6533 96.2448 75.84 95.6048 76C94.9648 76.16 94.2714 76.24 93.5248 76.24C92.7514 76.24 92.0181 76.0933 91.3248 75.8C90.6581 75.5067 90.1248 75.0667 89.7248 74.48C89.3248 73.8667 89.1248 73.12 89.1248 72.24V57.32H86.2448V55.16H89.1248V48.12H91.8448V55.16H96.6448V57.32H91.8448V71.48C91.8981 72.2267 92.1648 72.7867 92.6448 73.16C93.1514 73.5333 93.7248 73.72 94.3648 73.72C95.1114 73.72 95.7914 73.6 96.4048 73.36C97.0181 73.0933 97.3914 72.9067 97.5248 72.8L98.2448 75ZM106.803 76.52C105.817 76.52 104.91 76.4267 104.083 76.24C103.257 76.0533 102.577 75.7067 102.043 75.2C101.643 74.8267 101.377 74.4133 101.243 73.96C101.11 73.48 101.043 72.96 101.043 72.4C101.043 71.4933 101.123 70.5867 101.283 69.68C101.523 68.1067 101.737 66.4133 101.923 64.6C102.11 62.7867 102.203 61.1067 102.203 59.56C102.203 59.08 102.177 58.5333 102.123 57.92C102.097 57.3067 102.043 56.7333 101.963 56.2C101.777 56.28 101.59 56.36 101.403 56.44C101.243 56.4933 101.097 56.52 100.963 56.52C100.723 56.52 100.563 56.4 100.483 56.16C100.403 55.92 100.363 55.6533 100.363 55.36C100.363 54.5867 100.537 53.9333 100.883 53.4C101.257 52.84 101.857 52.3467 102.683 51.92C103.563 51.44 104.71 51.0267 106.123 50.68C107.563 50.3067 109.017 50.12 110.483 50.12C113.817 50.12 116.43 51.1067 118.323 53.08C120.243 55.0267 121.203 57.8 121.203 61.4C121.203 63.4533 120.883 65.4 120.243 67.24C119.63 69.0533 118.71 70.6667 117.483 72.08C116.257 73.4667 114.75 74.56 112.963 75.36C111.177 76.1333 109.123 76.52 106.803 76.52ZM108.083 72.04C109.283 72.04 110.483 71.8533 111.683 71.48C112.883 71.1067 113.963 70.5467 114.923 69.8C115.91 69.0533 116.697 68.1067 117.283 66.96C117.87 65.7867 118.163 64.3867 118.163 62.76C118.163 60.92 117.803 59.4 117.083 58.2C116.363 57 115.403 56.1067 114.203 55.52C113.003 54.9333 111.67 54.64 110.203 54.64C109.403 54.64 108.603 54.7067 107.803 54.84C107.03 54.9733 106.417 55.1067 105.963 55.24C105.937 56.4667 105.857 57.6667 105.723 58.84C105.617 59.9867 105.483 61.1067 105.323 62.2C105.163 63.3467 105.03 64.4667 104.923 65.56C104.843 66.6533 104.803 67.7333 104.803 68.8C104.803 70.1333 105.07 71.0133 105.603 71.44C106.163 71.84 106.99 72.04 108.083 72.04ZM133.784 76.52C131.037 76.52 128.837 75.72 127.184 74.12C125.557 72.4933 124.744 70.1067 124.744 66.96C124.744 65.5467 124.93 64.08 125.304 62.56C125.704 61.04 126.357 59.5333 127.264 58.04C126.757 58.4933 126.277 58.72 125.824 58.72C125.05 58.72 124.664 58.1067 124.664 56.88C124.664 56 124.85 55.2933 125.224 54.76C125.597 54.2267 125.957 53.8 126.304 53.48C126.89 52.9733 127.637 52.4667 128.544 51.96C129.45 51.4267 130.517 50.9867 131.744 50.64C132.97 50.2933 134.344 50.12 135.864 50.12C139.437 50.12 142.117 51.1333 143.904 53.16C145.717 55.16 146.624 57.9467 146.624 61.52C146.624 63.6267 146.317 65.5867 145.704 67.4C145.09 69.2133 144.21 70.8 143.064 72.16C141.944 73.52 140.597 74.5867 139.024 75.36C137.45 76.1333 135.704 76.52 133.784 76.52ZM135.184 72.04C136.517 72.04 137.824 71.7333 139.104 71.12C140.41 70.5067 141.477 69.5333 142.304 68.2C143.157 66.84 143.584 65.08 143.584 62.92C143.584 60.8933 143.197 59.28 142.424 58.08C141.65 56.8533 140.664 55.9733 139.464 55.44C138.29 54.88 137.05 54.6 135.744 54.6C134.757 54.6 133.864 54.7333 133.064 55C132.29 55.24 131.597 55.5067 130.984 55.8C130.29 56.8667 129.637 58.1733 129.024 59.72C128.41 61.24 128.104 62.8533 128.104 64.56C128.104 66.2667 128.437 67.68 129.104 68.8C129.77 69.8933 130.637 70.7067 131.704 71.24C132.797 71.7733 133.957 72.04 135.184 72.04ZM152.174 76.4C151.587 76.4 151.08 76.2533 150.654 75.96C150.254 75.64 150.054 74.9067 150.054 73.76C150.054 73.1733 150.107 72.4667 150.214 71.64C150.347 70.7867 150.48 69.9067 150.614 69C150.827 67.72 151.04 66.32 151.254 64.8C151.467 63.2533 151.574 61.72 151.574 60.2C151.574 58.6 151.52 57.3733 151.414 56.52C151.307 55.6667 151.187 54.9733 151.054 54.44C151 54.1467 150.947 53.88 150.894 53.64C150.867 53.4 150.854 53.1333 150.854 52.84C150.854 51.9867 151.12 51.3467 151.654 50.92C152.214 50.4667 152.827 50.24 153.494 50.24C154.16 50.24 154.72 50.4133 155.174 50.76C155.627 51.08 156.027 51.4267 156.374 51.8C158.667 54.3867 160.734 57.1067 162.574 59.96C164.414 62.7867 165.947 65.6933 167.174 68.68C167.307 68.8933 167.427 69 167.534 69C167.694 69 167.8 68.8933 167.854 68.68C168.334 65.56 168.574 62.7333 168.574 60.2C168.574 58.68 168.507 57.48 168.374 56.6C168.267 55.6933 168.12 55 167.934 54.52C167.774 54.0133 167.614 53.6133 167.454 53.32C167.374 53.1333 167.307 52.9733 167.254 52.84C167.2 52.68 167.174 52.5333 167.174 52.4C167.174 52.08 167.334 51.76 167.654 51.44C168 51.0933 168.414 50.8133 168.894 50.6C169.374 50.3867 169.84 50.28 170.294 50.28C170.934 50.28 171.4 50.4933 171.694 50.92C171.987 51.3467 172.174 51.88 172.254 52.52C172.36 53.1333 172.414 53.76 172.414 54.4C172.414 55.12 172.347 56.0533 172.214 57.2C172.08 58.3467 171.92 59.5867 171.734 60.92C171.574 62.2267 171.427 63.52 171.294 64.8C171.187 66.08 171.134 67.2133 171.134 68.2C171.134 68.76 171.147 69.3067 171.174 69.84C171.227 70.3733 171.28 70.8933 171.334 71.4C171.414 72.0667 171.454 72.6533 171.454 73.16C171.454 74.1467 171.2 74.9333 170.694 75.52C170.214 76.08 169.547 76.36 168.694 76.36C168.107 76.36 167.52 76.1867 166.934 75.84C166.374 75.4933 165.947 74.9333 165.654 74.16C164.507 71.2267 163.094 68.3733 161.414 65.6C159.76 62.8 158.027 60.3867 156.214 58.36C155.92 58.0933 155.68 57.96 155.494 57.96C155.227 57.96 155.054 58.2533 154.974 58.84C154.84 59.8533 154.707 60.96 154.574 62.16C154.44 63.36 154.334 64.5333 154.254 65.68C154.174 66.8 154.134 67.76 154.134 68.56C154.134 69.4667 154.214 70.2533 154.374 70.92C154.534 71.56 154.774 72.1867 155.094 72.8C155.387 73.3333 155.534 73.8133 155.534 74.24C155.534 74.7467 155.24 75.24 154.654 75.72C154.067 76.1733 153.24 76.4 152.174 76.4ZM183.911 76.52C181.378 76.52 179.498 76.12 178.271 75.32C177.071 74.4933 176.471 72.96 176.471 70.72C176.471 70.2667 176.498 69.72 176.551 69.08C176.631 68.44 176.738 67.6667 176.871 66.76C177.084 65.4533 177.244 64.2933 177.351 63.28C177.458 62.24 177.511 61.1067 177.511 59.88C177.511 59.08 177.484 58.3067 177.431 57.56C177.404 56.8133 177.338 56.1067 177.231 55.44C176.831 55.52 176.564 55.56 176.431 55.56C176.218 55.56 176.071 55.52 175.991 55.44C175.911 55.3333 175.871 55.1467 175.871 54.88C175.871 54.32 175.938 53.7733 176.071 53.24C176.204 52.68 176.391 52.2267 176.631 51.88C177.084 51.24 177.778 50.8667 178.711 50.76C179.431 50.68 180.311 50.6 181.351 50.52C182.418 50.44 183.498 50.3867 184.591 50.36C185.711 50.3067 186.711 50.28 187.591 50.28C190.044 50.28 191.498 50.3333 191.951 50.44C192.644 50.5467 192.991 50.92 192.991 51.56C192.991 52.36 192.711 53.0933 192.151 53.76C191.858 54.16 191.564 54.4533 191.271 54.64C190.978 54.8 190.564 54.8667 190.031 54.84C188.858 54.76 187.831 54.7067 186.951 54.68C186.071 54.6533 185.458 54.64 185.111 54.64C184.498 54.64 183.858 54.6533 183.191 54.68C182.551 54.7067 181.898 54.7467 181.231 54.8C181.231 55.7333 181.191 56.7333 181.111 57.8C181.031 58.8667 180.924 59.9867 180.791 61.16C182.018 61.08 183.404 61.0267 184.951 61C186.498 60.9467 187.871 60.92 189.071 60.92C189.604 60.92 189.964 60.9733 190.151 61.08C190.364 61.1867 190.471 61.4667 190.471 61.92C190.471 62.3467 190.351 62.8267 190.111 63.36C189.898 63.8667 189.604 64.3067 189.231 64.68C189.071 64.84 188.898 64.9733 188.711 65.08C188.524 65.16 188.271 65.1867 187.951 65.16C186.804 65.1067 185.498 65.0667 184.031 65.04C182.591 65.0133 181.324 65.0133 180.231 65.04C180.124 65.6533 180.044 66.2133 179.991 66.72C179.938 67.2267 179.911 67.68 179.911 68.08C179.911 69.5467 180.284 70.5733 181.031 71.16C181.778 71.7467 183.004 72.04 184.711 72.04C185.751 72.04 186.751 71.9467 187.711 71.76C188.698 71.5733 189.698 71.2267 190.711 70.72C191.084 70.5067 191.364 70.4 191.551 70.4C191.844 70.4 192.124 70.6133 192.391 71.04C192.684 71.44 192.831 71.88 192.831 72.36C192.831 72.9467 192.604 73.5067 192.151 74.04C191.724 74.5467 191.151 74.9867 190.431 75.36C189.604 75.7333 188.618 76.0133 187.471 76.2C186.324 76.4133 185.138 76.52 183.911 76.52Z" fill="white"/>
</svg>
